<?xml version="1.0" encoding="UTF-8"?>
<!DOCTYPE svg PUBLIC "-//W3C//DTD SVG 1.1//EN" "http://www.w3.org/Graphics/SVG/1.1/DTD/svg11.dtd">
<!-- Creator: CorelDRAW -->
<svg xmlns="http://www.w3.org/2000/svg" xml:space="preserve" width="0.888299in" height="1.24863in" version="1.1" style="shape-rendering:geometricPrecision; text-rendering:geometricPrecision; image-rendering:optimizeQuality; fill-rule:evenodd; clip-rule:evenodd"
viewBox="0 0 237.88 334.37"
 xmlns:xlink="http://www.w3.org/1999/xlink"
 xmlns:xodm="http://www.corel.com/coreldraw/odm/2003">
 <defs>
  <style type="text/css">
   <![CDATA[
    .fil0 {fill:#FEFEFE;fill-rule:nonzero}
   ]]>
  </style>
 </defs>
 <g id="Layer_x0020_1">
  <metadata id="CorelCorpID_0Corel-Layer"/>
  <g id="_3047530387312">
   <path class="fil0" d="M133.92 169.53c0.01,0 0.01,0 0.02,0 0,-2.53 0.09,-5.07 -0.02,-7.6 -0.28,-6.58 -3.87,-11.47 -9.41,-12.98 -12.67,-3.44 -22.3,5.33 -20.16,18.34 1.08,6.55 5.56,11.38 12.11,11.98 5.2,0.48 10.49,0.09 15.74,-0.11 0.6,-0.02 1.58,-1.3 1.64,-2.06 0.21,-2.51 0.08,-5.06 0.08,-7.59zm12.19 9.66c0,0 6.41,-0.02 6.41,-0.02 0,0 -0,-2.2 -0,-2.2l11.9 -3.73 0.03 5.95c3.09,-0.12 3.93,-2 3.94,-4.42 0.06,-8.47 0.22,-16.95 0.04,-25.42 -0.06,-2.8 0.86,-4.28 3.4,-5.25 2.8,-1.07 5.48,-2.48 8.68,-3.96 0.11,1.33 0.26,2.42 0.26,3.5 0.05,9.35 0.05,18.7 0.1,28.05 0.03,5.68 1.78,7.51 7.51,7.66 2.62,0.07 5.27,0.05 7.87,-0.26 3.71,-0.45 5.04,-2.13 5.06,-5.87 0.03,-7.6 0.13,-15.2 -0.01,-22.79 -0.06,-3.6 1.11,-6.44 3.84,-8.72 2.57,-2.14 5.12,-4.31 7.68,-6.47 0.27,0.11 0.53,0.23 0.79,0.34 0,1.9 -0.01,3.8 0,5.7 0.1,10.81 0.2,21.62 0.31,32.43 0.09,9.33 -5.31,15.49 -14.73,16.27 -6.57,0.54 -13.43,1.59 -19.54,-1.42 -3.8,-1.87 -6.56,-2.23 -10.41,-0.19 -4.57,2.42 -4.81,1.93 -4.81,7.14 0.01,9.16 -0,18.31 -0.02,27.47 -0.06,22.64 -14.33,36.06 -34.76,39.38 -12.33,2 -24.21,0.29 -35.55,-5.06 -13.33,-6.3 -21.37,-17.13 -26.19,-30.64 -4.53,-12.69 -5.53,-25.87 -4.37,-39.18 1.35,-15.5 3.58,-30.94 4.52,-46.46 1.11,-18.25 -3.32,-34.87 -17.88,-47.34 -8.2,-7.03 -18.15,-10.45 -28.56,-12.5 -6.86,-1.35 -13.8,-2.26 -21.63,-3.52 1.7,-0.28 2.57,-0.51 3.45,-0.56 13.48,-0.8 26.59,0.75 39.18,5.95 14.41,5.95 23.76,16.46 28.51,31.22 4.73,14.69 4.39,29.7 3.18,44.83 -1.07,13.28 -2.37,26.58 -2.49,39.87 -0.1,10.75 2.43,21.22 7.91,30.76 7.17,12.47 18.24,19.08 32.13,21.31 8.79,1.42 17.45,0.92 25.75,-2.75 9.49,-4.2 14.59,-11.58 14.9,-21.83 0.33,-11.19 0.03,-22.4 0.06,-33.6 0.01,-2.25 -1.24,-2.86 -3.14,-2.75 -0.91,0.05 -1.8,0.32 -3.09,0.56 0.51,13.96 -3.94,25.79 -16.2,33.66 -5.91,3.79 -12.41,5.76 -19.69,4.46 1.01,-0.32 2,-0.68 3.02,-0.95 12.6,-3.37 21.76,-13.48 20.53,-27.97 -0.2,-2.32 -0.28,-4.66 -0.47,-6.98 -0.16,-2.08 -1.18,-3.03 -3.42,-2.97 -4.57,0.12 -9.15,-0.11 -13.73,0 -16.39,0.41 -26.16,-13.34 -24.91,-28.67 0.67,-8.14 3.9,-15.21 10.8,-19.83 9.67,-6.48 20.17,-6.91 30.54,-1.98 9.71,4.62 13.1,13.33 13.28,23.56 0.09,5.24 0.02,11.16 0.02,16.21z"/>
   <path class="fil0" d="M113.65 44.17c-0.22,-4.79 -0.46,-9.23 -0.64,-13.68 -0.38,-9.24 -5.24,-14.84 -13.88,-17.7 -10.78,-3.57 -21.85,-0.68 -27.19,7.45 -3.31,5.04 -3.93,10.76 -3.5,16.56 0.45,6.19 1.28,12.35 1.94,18.53 0.06,0.56 0.01,1.12 0.01,1.91 -9.01,-4.93 -16.38,-11.2 -20.41,-20.58 -5.55,-12.91 2.43,-27.28 13.34,-32.8 7.42,-3.76 15.27,-4.78 23.28,-3.06 11.7,2.51 22.45,7.14 30.61,16.36 7.23,8.16 6.12,19.64 -2.36,26.31 -0.36,0.28 -0.79,0.46 -1.19,0.7z"/>
   <path class="fil0" d="M101.66 0.75c17.42,-3.12 33.22,5.48 35.67,24.22 1.32,10.09 -3.38,17.97 -10.81,24.22 -4.45,3.74 -9.4,6.89 -14.17,10.24 -9.87,6.94 -13.49,11.23 -18.43,21.94 -0.18,-0.02 -0.48,-0 -0.51,-0.09 -2.44,-6.15 -6.69,-10.81 -11.73,-14.98 -6,-4.97 -9.76,-16.7 -8.16,-24.94 4.56,5.22 10.07,8.51 16.69,10.01 7.67,1.75 15.11,1.08 22.27,-2.01 13.88,-5.99 18.2,-21.66 9.45,-34.02 -4.48,-6.33 -10.77,-10.28 -17.8,-13.2 -0.71,-0.3 -1.42,-0.61 -2.12,-0.92 -0.08,-0.03 -0.12,-0.15 -0.36,-0.48z"/>
   <path class="fil0" d="M137.62 43.77c8.59,23.61 -18.22,61.19 -40.89,57.5 -1.44,-7.94 0.21,-15.34 3.98,-22.42 3.07,-5.77 7.17,-10.65 12.44,-14.5 8.59,-6.29 17.95,-11.61 24.48,-20.58z"/>
   <path class="fil0" d="M49.24 43.77c5.78,8.22 13.41,13.67 21.09,19.17 8.19,5.86 15.74,12.49 19.12,22.52 1.79,5.3 3.1,10.64 0.99,16.16 -29.74,-1.21 -46.49,-33.02 -41.21,-57.85z"/>
   <path class="fil0" d="M234.55 154.34c0,11.85 0.05,23.71 -0.02,35.56 -0.05,8.36 0.15,16.75 -0.49,25.07 -1.06,13.67 -10.01,22.97 -23.52,25.03 -3.66,0.56 -7.4,0.59 -11.1,0.87 -0.07,-0.34 -0.14,-0.68 -0.2,-1.02 1.8,-0.74 3.61,-1.43 5.38,-2.23 8.13,-3.66 14.85,-8.75 16.58,-18.13 0.72,-3.88 0.74,-7.92 0.75,-11.89 0.04,-13.23 -0.03,-26.46 -0.15,-39.7 -0.02,-2.61 0.63,-4.77 2.64,-6.47 3.01,-2.54 6.02,-5.09 9.02,-7.64 0.37,0.18 0.73,0.37 1.1,0.55z"/>
   <path class="fil0" d="M78.63 156.85c0.97,-5.08 1.34,-10.37 3,-15.21 6.35,-18.52 19.06,-31.47 36.3,-40.37 13.05,-6.74 27.32,-9.43 41.26,-13.29 10.32,-2.86 20.53,-6.09 29.38,-12.44 1.69,-1.21 3.21,-2.65 4.81,-3.98 0.2,0.17 0.4,0.34 0.6,0.51 -1.99,2.41 -3.79,5.01 -6.01,7.2 -7.21,7.1 -16.04,11.63 -25.39,15.12 -7.64,2.85 -15.41,5.37 -23.18,7.87 -13.53,4.35 -26.39,9.93 -37.27,19.36 -10.71,9.29 -18.4,20.5 -21.91,34.38 -0.09,0.36 -0.28,0.69 -0.42,1.03 -0.39,-0.05 -0.79,-0.11 -1.18,-0.16z"/>
   <path class="fil0" d="M86.48 25.01c-3.53,0.38 -5.37,2.86 -4.81,6.31 0.57,3.48 2.66,5.8 5.9,7.01 6.76,2.54 12.99,0.78 18.97,-2.56 0.75,-0.42 1.46,-0.94 2.2,-1.42 2.56,6.08 -1.1,12.71 -7.35,13.33 -8.34,0.83 -15.84,-1.16 -22.07,-7 -3.98,-3.72 -6.56,-8.11 -5.11,-13.75 1.54,-6 5.82,-9.23 11.73,-10.4 5.74,-1.14 11.3,-0.55 16.27,2.67 6.25,4.05 5.9,10.22 -0.67,13.69 -3.45,1.83 -7.13,2.54 -11.01,1.7 -5.53,-1.19 -7.01,-4.49 -4.05,-9.59z"/>
   <path class="fil0" d="M123.9 213.27c-0.05,5.48 -3.99,9.25 -9.56,9.16 -5.37,-0.09 -9.43,-4.25 -9.3,-9.54 0.12,-5.22 4.44,-9.36 9.67,-9.28 5.29,0.08 9.25,4.23 9.19,9.66z"/>
   <path class="fil0" d="M237.88 138.99c0.06,4.52 -3.68,8.19 -8.4,8.24 -4.81,0.05 -8.59,-3.41 -8.7,-7.95 -0.11,-4.75 3.85,-8.84 8.56,-8.83 4.66,0.01 8.47,3.82 8.54,8.54z"/>
   <path class="fil0" d="M170.9 139.7c-4.36,-0.19 -8.02,-3.99 -7.85,-8.16 0.19,-4.73 3.7,-8.02 8.36,-7.83 4.58,0.18 7.95,3.68 7.81,8.1 -0.15,4.71 -3.71,8.09 -8.32,7.89z"/>
   <path class="fil0" d="M144.92 131.59c0.08,-4.54 3.48,-7.9 7.98,-7.87 4.77,0.03 8.39,3.69 8.21,8.31 -0.16,4.17 -4,7.64 -8.4,7.59 -4.46,-0.05 -7.87,-3.57 -7.79,-8.03z"/>
   <path class="fil0" d="M185.16 193.91c4.3,-0.08 7.71,3.09 7.9,7.33 0.19,4.31 -3.25,7.82 -7.67,7.83 -4.2,0.01 -7.48,-3.33 -7.53,-7.66 -0.04,-4.19 3.1,-7.42 7.3,-7.5z"/>
   <path class="fil0" d="M209.57 201.6c-0.03,4.45 -3.17,7.51 -7.64,7.46 -4.19,-0.05 -7.39,-3.29 -7.37,-7.46 0.01,-4.25 3.46,-7.79 7.52,-7.73 4.24,0.07 7.53,3.46 7.5,7.73z"/>
   <path class="fil0" d="M22.44 310.69l4.81 0 -1.47 6.78c-0.4,1.86 -0.4,3.45 0,4.78 0.4,1.33 1.17,2.35 2.3,3.06 1.13,0.71 2.57,1.06 4.33,1.06l5.87 0c0.81,0 1.5,-0.03 2.07,-0.1 0.57,-0.07 1.15,-0.22 1.72,-0.46l-0.1 -22.83 5.47 -1.37 -0.05 11.19c0.07,1.15 0.5,2.07 1.29,2.78 0.79,0.71 1.87,1.06 3.21,1.06l2.02 0c0.57,0 1.06,0.34 1.47,1.01 0.4,0.67 0.61,1.48 0.61,2.43 0,0.94 -0.2,1.75 -0.61,2.43 -0.4,0.67 -0.89,1.01 -1.47,1.01l-1.57 0c-1.05,0 -1.99,-0.18 -2.84,-0.53 -0.84,-0.35 -1.57,-0.85 -2.18,-1.49l0 2.07c-0.03,0.34 -0.05,0.68 -0.05,1.04 0,0.35 0,0.7 0,1.04 -0.13,1.55 -0.59,2.9 -1.37,4.05 -0.78,1.15 -1.84,2.02 -3.19,2.63 -1.35,0.61 -2.95,0.91 -4.81,0.91l-5.57 0c-2.9,0 -5.34,-0.66 -7.31,-1.97 -1.97,-1.32 -3.32,-3.17 -4.05,-5.57 -0.73,-2.4 -0.73,-5.18 -0.03,-8.35l1.47 -6.68zm7.19 -8.86l6.12 0.05 0.05 5.82 -6.12 -0.05 -0.05 -5.82z"/>
   <path id="_1" class="fil0" d="M78.01 321.32c-0.74,0.78 -1.6,1.34 -2.58,1.7 -0.98,0.35 -2.13,0.53 -3.44,0.53l-18.12 0c-0.57,0 -1.06,-0.34 -1.47,-1.01 -0.4,-0.67 -0.61,-1.48 -0.61,-2.43 0,-0.98 0.2,-1.8 0.61,-2.46 0.4,-0.66 0.89,-0.99 1.47,-0.99l6.48 0 0 -12.6 5.01 -1.11 0 13.72 7.09 0c1.01,0 1.82,-0.33 2.43,-0.99 0.61,-0.66 0.91,-1.49 0.91,-2.51l0 -6.02 5.01 0 0 6.58c0,0.3 0,0.61 0,0.91 0,0.3 -0.02,0.61 -0.05,0.91l8.4 2.28 -3.14 -16.04 5.06 -2.73 3.04 15.39c0.24,0.61 0.67,1.13 1.32,1.57 0.64,0.44 1.5,0.66 2.58,0.66l3.24 0c0.57,0 1.06,0.33 1.47,0.99 0.4,0.66 0.61,1.48 0.61,2.46 0,0.94 -0.2,1.75 -0.61,2.43 -0.4,0.67 -0.89,1.01 -1.47,1.01l-2.58 0c-1.15,0 -2.19,-0.22 -3.14,-0.66 -0.94,-0.44 -1.75,-1.05 -2.43,-1.82l-0.05 0.1c0,0 -0.01,0.01 -0.03,0.03 -0.02,0.02 -0.04,0.04 -0.08,0.08 -0.03,0.03 -0.05,0.06 -0.05,0.08 0,0.02 -0.02,0.04 -0.05,0.08l-2.68 3.34 -12.15 -3.44zm-6.93 -25.41l12.91 0 0.05 5.11 -12.91 0 -0.05 -5.11zm3.7 -0.56l-0.05 -5.26 5.72 0 -0.15 5.31 -5.52 -0.05z"/>
   <path id="_2" class="fil0" d="M98.46 320.1c0,-1.01 0.24,-1.84 0.71,-2.48 0.47,-0.64 1.13,-0.96 1.97,-0.96l5.37 0c1.28,0 2.38,-0.15 3.29,-0.46 0.91,-0.3 1.67,-0.74 2.28,-1.32l-2.99 -14.73 5.37 -2.58 2.63 12.7c0.54,2.6 0.45,4.9 -0.28,6.91 -0.73,2.01 -1.97,3.57 -3.74,4.68 -1.77,1.11 -3.94,1.67 -6.5,1.67l-5.42 0c-0.84,0 -1.5,-0.33 -1.97,-0.99 -0.47,-0.66 -0.71,-1.48 -0.71,-2.45zm1.62 9.11l12.91 0.05 0.05 5.11 -12.96 0 0 -5.16z"/>
   <path id="_3" class="fil0" d="M119.16 327.69l7.44 -3.04c0.2,-0.07 0.4,-0.14 0.61,-0.23 0.2,-0.08 0.4,-0.16 0.61,-0.23 0.17,-0.1 0.35,-0.19 0.56,-0.28 0.2,-0.08 0.4,-0.16 0.61,-0.23l0 -21.21 5.21 -0.96 0 19.94c0,2.33 -0.46,4.26 -1.39,5.8 -0.93,1.54 -2.29,2.67 -4.07,3.42l-6.88 2.78 -2.68 -5.77z"/>
   <path id="_4" class="fil0" d="M140.83 328.2l8.86 -2.89c0.61,-0.2 1.06,-0.35 1.37,-0.46 0.24,-0.07 0.46,-0.14 0.68,-0.23 0.22,-0.08 0.45,-0.16 0.68,-0.23l-0.46 -5.06 0 -15.84 -6.68 1.42c-1.55,0.34 -2.64,0.97 -3.27,1.9 -0.62,0.93 -0.82,2.22 -0.58,3.87l0.86 6.18 13.06 0 -2.38 5.57 -2.68 0.51c-0.34,0.07 -0.68,0.11 -1.04,0.13 -0.35,0.02 -0.72,0.03 -1.09,0.03l-5.16 0c-1.59,0 -2.94,-0.51 -4.07,-1.52 -1.13,-1.01 -1.8,-2.33 -2,-3.95l-0.71 -5.16c-0.51,-3.54 0.02,-6.49 1.57,-8.83 1.55,-2.34 4,-3.89 7.34,-4.63l7.95 -1.67 2.43 1.97c1.18,1.01 1.77,2.31 1.77,3.9l0 19.49c0,1.86 -0.49,3.53 -1.47,5.01 -0.98,1.48 -2.33,2.51 -4.05,3.09l-8.96 2.94 -1.97 -5.52zm15.84 -11.54l5.67 0c0.57,0 1.06,0.33 1.47,0.99 0.4,0.66 0.61,1.48 0.61,2.46 0,0.94 -0.2,1.75 -0.61,2.43 -0.4,0.67 -0.89,1.01 -1.47,1.01l-5.87 0 0.2 -6.88z"/>
   <path id="_5" class="fil0" d="M161.43 323.54c-0.57,0 -1.06,-0.34 -1.47,-1.01 -0.4,-0.67 -0.61,-1.48 -0.61,-2.43 0,-0.95 0.2,-1.76 0.61,-2.43 0.4,-0.67 0.89,-1.01 1.47,-1.01l12.96 0c0.57,0 1.06,0.34 1.47,1.01 0.4,0.67 0.61,1.48 0.61,2.43 0,0.94 -0.2,1.75 -0.61,2.43 -0.4,0.67 -0.89,1.01 -1.47,1.01l-12.96 0z"/>
   <path id="_6" class="fil0" d="M174.03 323.54c-0.57,0 -1.06,-0.34 -1.47,-1.01 -0.4,-0.67 -0.61,-1.48 -0.61,-2.43 0,-0.95 0.2,-1.76 0.61,-2.43 0.4,-0.67 0.89,-1.01 1.47,-1.01l12.96 0c0.57,0 1.06,0.34 1.47,1.01 0.4,0.67 0.61,1.48 0.61,2.43 0,0.94 -0.2,1.75 -0.61,2.43 -0.4,0.67 -0.89,1.01 -1.47,1.01l-12.96 0z"/>
   <path id="_7" class="fil0" d="M186.58 323.54c-0.57,0 -1.06,-0.34 -1.47,-1.01 -0.4,-0.67 -0.61,-1.48 -0.61,-2.43 0,-0.95 0.2,-1.76 0.61,-2.43 0.4,-0.67 0.89,-1.01 1.47,-1.01l15.34 0c1.15,0 2.09,-0.16 2.84,-0.48 0.74,-0.32 1.33,-0.78 1.77,-1.39l-0.56 -3.39c-0.2,-1.15 -0.66,-2.04 -1.37,-2.68 -0.71,-0.64 -1.62,-0.96 -2.73,-0.96l-10.83 0 -3.24 -7.04 12.3 -11.89 2.63 5.37 -8.2 7.69 7.74 0c2.33,0 4.29,0.64 5.87,1.92 1.59,1.28 2.56,3 2.94,5.16l0.46 2.63c0.4,2.23 0.21,4.24 -0.58,6.05 -0.79,1.8 -2.07,3.24 -3.85,4.3 -1.77,1.06 -3.91,1.59 -6.4,1.59l-14.12 0z"/>
   <path id="_8" class="fil0" d="M217.56 316.66l8.5 0c1.48,0 2.7,-0.15 3.64,-0.46 0.94,-0.3 1.74,-0.78 2.38,-1.42l-1.06 -5.62c-0.2,-1.01 -0.57,-1.91 -1.11,-2.71 -0.54,-0.79 -1.21,-1.48 -2.02,-2.05l-4.81 -3.24 2.28 -5.62 5.67 3.75c1.48,1.01 2.69,2.22 3.62,3.62 0.93,1.4 1.53,2.98 1.8,4.73l0.66 4.1c0.34,1.96 0.14,3.84 -0.58,5.64 -0.73,1.8 -1.97,3.28 -3.74,4.43 -1.77,1.15 -3.99,1.72 -6.66,1.72l-7.9 0 -0.66 -6.88z"/>
  </g>
 </g>
</svg>
